<!-- Generated by IcoMoon.io -->
<svg version="1.1" xmlns="http://www.w3.org/2000/svg" width="32" height="32" viewBox="0 0 32 32">
<title>why02</title>
<path fill="#a4a4a4" d="M2.473 4.913c1.076-1.931 3.15-3.246 5.527-3.246h12c0.552 0 1 0.448 1 1v13.333c0 2.019-1.648 3.667-3.667 3.667h-1.333c-0.552 0-1-0.448-1-1s0.448-1 1-1h1.333c0.914 0 1.667-0.752 1.667-1.667v-12.333h-11c-1.623 0-3.043 0.898-3.78 2.22-0.269 0.482-0.878 0.655-1.36 0.387s-0.655-0.878-0.387-1.36z"></path>
<path fill="#a4a4a4" d="M19 6.667c0-0.552 0.448-1 1-1h2.453c1.325 0 2.53 0.717 3.185 1.845l0.003 0.006 2.28 3.987c0.177 0.309 0.176 0.69-0.003 0.998s-0.508 0.498-0.865 0.498h-1.72c-0.181 0-0.333 0.152-0.333 0.333v4c0 0.181 0.152 0.333 0.333 0.333h4c0.552 0 1 0.448 1 1v4c0 2.766-2.234 5-5 5h-1.333c-0.552 0-1-0.448-1-1 0-0.914-0.752-1.667-1.667-1.667s-1.667 0.752-1.667 1.667c0 0.552-0.448 1-1 1h-5.333c-0.552 0-1-0.448-1-1 0-0.914-0.752-1.667-1.667-1.667s-1.667 0.752-1.667 1.667c0 0.552-0.448 1-1 1h-1.333c-2.766 0-5-2.234-5-5 0-0.552 0.448-1 1-1s1 0.448 1 1c0 1.661 1.339 3 3 3h0.472c0.437-1.536 1.855-2.667 3.528-2.667s3.090 1.131 3.528 2.667h3.612c0.437-1.536 1.855-2.667 3.528-2.667s3.090 1.131 3.527 2.667h0.473c1.661 0 3-1.339 3-3v-3h-3c-1.286 0-2.333-1.048-2.333-2.333v-4c0-1.284 1.046-2.331 2.329-2.333l-1.421-2.485c-0-0.001-0.001-0.002-0.002-0.002-0.306-0.525-0.86-0.846-1.454-0.846h-1.453v8.333c0 2.019-1.648 3.667-3.667 3.667h-1.333c-0.552 0-1-0.448-1-1s0.448-1 1-1h1.333c0.914 0 1.667-0.752 1.667-1.667v-9.333z"></path>
<path fill="#a4a4a4" d="M10.667 25c-0.921 0-1.667 0.746-1.667 1.667s0.746 1.667 1.667 1.667c0.92 0 1.667-0.746 1.667-1.667s-0.746-1.667-1.667-1.667zM7 26.667c0-2.025 1.642-3.667 3.667-3.667s3.667 1.642 3.667 3.667c0 2.025-1.642 3.667-3.667 3.667s-3.667-1.642-3.667-3.667z"></path>
<path fill="#a4a4a4" d="M21.334 25c-0.921 0-1.667 0.746-1.667 1.667s0.746 1.667 1.667 1.667c0.92 0 1.667-0.746 1.667-1.667s-0.746-1.667-1.667-1.667zM17.667 26.667c0-2.025 1.642-3.667 3.667-3.667s3.667 1.642 3.667 3.667c0 2.025-1.642 3.667-3.667 3.667s-3.667-1.642-3.667-3.667z"></path>
<path fill="#a4a4a4" d="M25.333 13c-0.181 0-0.333 0.152-0.333 0.333v4c0 0.181 0.152 0.333 0.333 0.333h3v-1.402l-1.861-3.265h-1.139zM23 13.333c0-1.286 1.048-2.333 2.333-2.333h1.72c0.359 0 0.691 0.193 0.869 0.505l2.28 4c0.086 0.151 0.131 0.322 0.131 0.495v2.667c0 0.552-0.448 1-1 1h-4c-1.286 0-2.333-1.048-2.333-2.333v-4z"></path>
<path fill="#a4a4a4" d="M1.667 10.667c0-0.552 0.448-1 1-1h8c0.552 0 1 0.448 1 1s-0.448 1-1 1h-8c-0.552 0-1-0.448-1-1z"></path>
<path fill="#a4a4a4" d="M1.667 14.667c0-0.552 0.448-1 1-1h5.333c0.552 0 1 0.448 1 1s-0.448 1-1 1h-5.333c-0.552 0-1-0.448-1-1z"></path>
<path fill="#a4a4a4" d="M1.667 18.667c0-0.552 0.448-1 1-1h2.667c0.552 0 1 0.448 1 1s-0.448 1-1 1h-2.667c-0.552 0-1-0.448-1-1z"></path>
</svg>
