<!-- Generated by IcoMoon.io -->
<svg version="1.1" xmlns="http://www.w3.org/2000/svg" width="32" height="32" viewBox="0 0 32 32">
<title>why01</title>
<path fill="#a4a4a4" d="M18.96 2.96c0.92-0.92 2.22-1.293 3.707-1.293h2.667c1.487 0 2.787 0.373 3.707 1.293s1.293 2.22 1.293 3.707v2.667c0 1.488-0.373 2.787-1.293 3.707s-2.22 1.293-3.707 1.293h-2.667c-1.488 0-2.787-0.373-3.707-1.293s-1.293-2.22-1.293-3.707v-2.667c0-1.487 0.372-2.787 1.293-3.707zM20.374 4.374c-0.413 0.413-0.707 1.114-0.707 2.293v2.667c0 1.179 0.294 1.88 0.707 2.293s1.114 0.707 2.293 0.707h2.667c1.179 0 1.88-0.294 2.293-0.707s0.707-1.114 0.707-2.293v-2.667c0-1.179-0.294-1.88-0.707-2.293s-1.114-0.707-2.293-0.707h-2.667c-1.179 0-1.88 0.294-2.293 0.707z"></path>
<path fill="#a4a4a4" d="M2.96 18.959c0.92-0.92 2.22-1.293 3.707-1.293h2.667c1.487 0 2.787 0.373 3.707 1.293s1.293 2.22 1.293 3.707v2.667c0 1.488-0.373 2.787-1.293 3.707s-2.22 1.293-3.707 1.293h-2.667c-1.487 0-2.787-0.373-3.707-1.293s-1.293-2.22-1.293-3.707v-2.667c0-1.488 0.373-2.787 1.293-3.707zM4.374 20.374c-0.413 0.413-0.707 1.114-0.707 2.293v2.667c0 1.179 0.294 1.88 0.707 2.293s1.114 0.707 2.293 0.707h2.667c1.179 0 1.88-0.294 2.293-0.707s0.707-1.114 0.707-2.293v-2.667c0-1.179-0.294-1.88-0.707-2.293s-1.114-0.707-2.293-0.707h-2.667c-1.179 0-1.88 0.294-2.293 0.707z"></path>
<path fill="#a4a4a4" d="M8 3.667c-2.393 0-4.333 1.94-4.333 4.333s1.94 4.333 4.333 4.333c2.393 0 4.333-1.94 4.333-4.333s-1.94-4.333-4.333-4.333zM1.667 8c0-3.498 2.836-6.333 6.333-6.333s6.333 2.836 6.333 6.333c0 3.498-2.836 6.333-6.333 6.333s-6.333-2.835-6.333-6.333z"></path>
<path fill="#a4a4a4" d="M24 19.667c-2.393 0-4.333 1.94-4.333 4.333s1.94 4.333 4.333 4.333c2.393 0 4.333-1.94 4.333-4.333s-1.94-4.333-4.333-4.333zM17.667 24c0-3.498 2.835-6.333 6.333-6.333s6.333 2.836 6.333 6.333c0 3.498-2.836 6.333-6.333 6.333s-6.333-2.835-6.333-6.333z"></path>
</svg>
