<!-- Generated by IcoMoon.io -->
<svg version="1.1" xmlns="http://www.w3.org/2000/svg" width="32" height="32" viewBox="0 0 32 32">
<title>why03</title>
<path fill="#a4a4a4" d="M8.346 11.333c-2.208 0-4.013 1.806-4.013 4.013v4.101c0.724-0.288 1.511-0.448 2.333-0.448 3.499 0 6.333 2.834 6.333 6.333 0 1.077-0.274 2.105-0.764 3h11.418c2.208 0 4.013-1.806 4.013-4.013v-0.587h-1.533c-1.879 0-3.704-1.374-3.876-3.404-0.108-1.15 0.33-2.224 1.088-2.969 0.682-0.696 1.617-1.093 2.628-1.093h1.693v-0.92c0-2.208-1.806-4.013-4.013-4.013h-15.307zM2.333 15.347c0-3.312 2.701-6.013 6.013-6.013h15.307c3.312 0 6.013 2.701 6.013 6.013v1.92c0 0.552-0.448 1-1 1h-2.693c-0.479 0-0.9 0.186-1.204 0.498l-0.018 0.018c-0.355 0.346-0.553 0.839-0.503 1.363l0.001 0.012c0.070 0.847 0.885 1.576 1.883 1.576h2.533c0.552 0 1 0.448 1 1v1.587c0 3.312-2.701 6.013-6.013 6.013h-13.48c-0.42 0-0.796-0.263-0.94-0.658s-0.025-0.838 0.297-1.108c0.324-0.272 0.61-0.609 0.832-0.991l0.013-0.021c0.397-0.644 0.624-1.409 0.624-2.222 0-2.394-1.939-4.333-4.333-4.333-1.015 0-1.958 0.356-2.71 0.955-0.3 0.239-0.711 0.286-1.057 0.119s-0.566-0.517-0.566-0.901v-5.827z"></path>
<path fill="#a4a4a4" d="M18.8 5.267c0-1.077-1.076-1.816-2.072-1.438l-10.587 4c-1.089 0.412-1.807 1.452-1.807 2.625v6.093c0 0.552-0.448 1-1 1s-1-0.448-1-1v-6.093c0-2 1.229-3.787 3.099-4.495l10.586-4c2.311-0.876 4.781 0.838 4.781 3.308v5.067c0 0.552-0.448 1-1 1s-1-0.448-1-1v-5.067z"></path>
<path fill="#a4a4a4" d="M25.971 18.267c-0.479 0-0.9 0.186-1.203 0.498l-0.018 0.018c-0.355 0.346-0.553 0.839-0.503 1.363l0.001 0.012c0.070 0.847 0.885 1.576 1.883 1.576h2.59c0.215-0.014 0.356-0.182 0.356-0.36v-2.747c0-0.177-0.141-0.346-0.356-0.36h-2.75zM23.344 17.36c0.682-0.696 1.617-1.093 2.628-1.093h2.773c0.012 0 0.024 0 0.036 0.001 1.271 0.045 2.298 1.074 2.298 2.359v2.747c0 1.286-1.027 2.314-2.298 2.359-0.012 0-0.024 0.001-0.036 0.001h-2.613c-1.879 0-3.704-1.374-3.876-3.404-0.108-1.15 0.33-2.224 1.088-2.969z"></path>
<path fill="#a4a4a4" d="M8.333 16c0-0.552 0.448-1 1-1h9.333c0.552 0 1 0.448 1 1s-0.448 1-1 1h-9.333c-0.552 0-1-0.448-1-1z"></path>
<path fill="#a4a4a4" d="M6.666 21c-1.015 0-1.958 0.356-2.71 0.955l-0.002 0.001c-0.994 0.788-1.622 2.009-1.622 3.377 0 0.813 0.227 1.578 0.625 2.222l0.008 0.014h-0c0.746 1.255 2.119 2.098 3.701 2.098 1.097 0 2.086-0.4 2.838-1.077 0.009-0.008 0.017-0.015 0.026-0.023 0.324-0.272 0.61-0.609 0.832-0.991l0.013-0.021c0.397-0.644 0.624-1.409 0.624-2.222 0-2.394-1.939-4.333-4.333-4.333zM2.711 20.391c1.088-0.867 2.465-1.391 3.956-1.391 3.499 0 6.333 2.834 6.333 6.333 0 1.183-0.33 2.307-0.916 3.261-0.333 0.569-0.761 1.077-1.255 1.494-1.113 0.996-2.572 1.578-4.163 1.578-2.309 0-4.321-1.234-5.415-3.069-0.587-0.954-0.918-2.080-0.918-3.265 0-1.992 0.918-3.784 2.378-4.943z"></path>
<path fill="#a4a4a4" d="M9.482 23.347c0.375 0.405 0.35 1.038-0.055 1.413l-2.84 2.627c-0.394 0.365-1.006 0.353-1.386-0.027l-1.32-1.32c-0.391-0.39-0.391-1.024 0-1.414s1.024-0.39 1.414 0l0.64 0.64 2.134-1.974c0.405-0.375 1.038-0.35 1.413 0.055z"></path>
</svg>
