<svg width="84" height="40" viewBox="0 0 84 40" fill="none" xmlns="http://www.w3.org/2000/svg">
<path d="M79.6957 17.8876C79.7276 15.409 81.0587 13.0637 83.1704 11.7655C81.8382 9.86299 79.6069 8.65672 77.2855 8.58409C74.8095 8.3242 72.4092 10.0657 71.1475 10.0657C69.8613 10.0657 67.9187 8.6099 65.8269 8.65294C63.1002 8.74103 60.5583 10.2913 59.2317 12.6751C56.3801 17.6122 58.5071 24.8681 61.2387 28.8589C62.6054 30.8131 64.2027 32.996 66.2927 32.9186C68.3378 32.8338 69.1017 31.6145 71.5704 31.6145C74.0162 31.6145 74.7328 32.9186 76.8652 32.8694C79.0597 32.8338 80.4424 30.9065 81.7612 28.9338C82.7431 27.5414 83.4987 26.0025 84 24.374C81.421 23.2832 79.6987 20.6878 79.6957 17.8876Z" fill="#B2B2B2"/>
<path d="M75.6679 5.95954C76.8645 4.52311 77.454 2.67681 77.3113 0.812744C75.4832 1.00475 73.7945 1.87846 72.5818 3.25978C71.3959 4.60941 70.7788 6.42322 70.8954 8.21604C72.7242 8.23487 74.522 7.38484 75.6679 5.95954Z" fill="#B2B2B2"/>
<g filter="url(#filter0_d_2_381)">
<path d="M4.58885 31.4057L18.4883 16.9893L4.60049 2.59863C4.22955 2.82268 4 3.34143 4 4.02047V29.9977C4.00497 30.6767 4.22622 31.1575 4.58885 31.4057Z" fill="#B2B2B2"/>
<path d="M18.986 16.5914L23.1262 12.2967L6.26592 2.70752C5.98201 2.53643 5.65953 2.44605 5.33109 2.44556L18.9844 16.5897L18.986 16.5914Z" fill="#B2B2B2"/>
<path d="M18.9866 17.3899L5.29004 31.5961C5.63381 31.6021 5.97242 31.509 6.26812 31.3272L23.1617 21.7123L18.9866 17.3899Z" fill="#B2B2B2"/>
<path d="M29.2344 15.7763L23.6237 12.5793L19.3704 16.9913L23.6553 21.4309L29.2327 18.2425C30.4187 17.5652 30.4187 16.4502 29.2344 15.7763Z" fill="#B2B2B2"/>
</g>
<defs>
<filter id="filter0_d_2_381" x="0" y="2.44556" width="34.1224" height="37.1509" filterUnits="userSpaceOnUse" color-interpolation-filters="sRGB">
<feFlood flood-opacity="0" result="BackgroundImageFix"/>
<feColorMatrix in="SourceAlpha" type="matrix" values="0 0 0 0 0 0 0 0 0 0 0 0 0 0 0 0 0 0 127 0" result="hardAlpha"/>
<feOffset dy="4"/>
<feGaussianBlur stdDeviation="2"/>
<feComposite in2="hardAlpha" operator="out"/>
<feColorMatrix type="matrix" values="0 0 0 0 0 0 0 0 0 0 0 0 0 0 0 0 0 0 0.25 0"/>
<feBlend mode="normal" in2="BackgroundImageFix" result="effect1_dropShadow_2_381"/>
<feBlend mode="normal" in="SourceGraphic" in2="effect1_dropShadow_2_381" result="shape"/>
</filter>
</defs>
</svg>
